<svg width="94" height="26" viewBox="0 0 94 26" fill="none" xmlns="http://www.w3.org/2000/svg">
<path d="M13.68 0.360001C12.33 0.0900006 11.76 0 9.96 0C5.61 0 2.49 2.64 2.49 7.26V10.5H0V14.85H2.49V25.59H7.95V14.85H10.74V10.5H7.95V7.2C7.95 5.43 9.24 4.5 10.95 4.5C11.94 4.5 12.63 4.59 13.74 4.95V25.59H19.2V0.360001H13.68Z" fill="#EE3A3A"/>
<path d="M21.3023 10.5V25.59H26.7623V10.5H21.3023ZM24.0323 2.46C22.1423 2.46 20.8823 3.66 20.8823 5.37C20.8823 7.05 22.1423 8.28 24.0323 8.28C25.9223 8.28 27.1823 7.05 27.1823 5.37C27.1823 3.66 25.9223 2.46 24.0323 2.46Z" fill="#EE3A3A"/>
<path d="M37.3591 21.48C35.3791 21.48 33.9091 20.16 33.9091 18C33.9391 15.75 35.0491 14.61 37.1491 14.61C38.4391 14.61 39.9391 14.88 41.2891 15.45V10.89C39.9091 10.38 38.7991 10.11 37.1491 10.11C32.4691 10.11 28.2691 13.23 28.2691 18C28.2691 22.68 32.4391 25.98 37.1491 25.98C38.6191 25.98 40.0591 25.77 41.2891 25.35V20.76C39.6691 21.36 38.4991 21.48 37.3591 21.48Z" fill="#EE3A3A"/>
<path d="M52.9898 10.11C50.9498 10.11 49.3598 11.13 48.3998 12.27V0.360001H42.9398V25.59H48.3998V17.55C48.6998 15.75 49.7498 14.61 51.3098 14.61C53.1098 14.61 53.5898 15.33 53.5898 17.4V25.59H59.0498V17.4C59.0498 12.75 57.2498 10.11 52.9898 10.11Z" fill="#EE3A3A"/>
<path d="M64.5942 19.62C62.4942 19.62 61.0242 20.88 61.0242 22.8C61.0242 24.72 62.4942 25.98 64.5942 25.98C66.7242 25.98 68.1942 24.72 68.1942 22.8C68.1942 20.88 66.7242 19.62 64.5942 19.62Z" fill="#1E1E48"/>
<path d="M70.2902 10.5V25.59H75.7502V10.5H70.2902ZM73.0202 2.46002C71.1302 2.46002 69.8702 3.66002 69.8702 5.37002C69.8702 7.05002 71.1302 8.28002 73.0202 8.28002C74.9102 8.28002 76.1702 7.05002 76.1702 5.37002C76.1702 3.66002 74.9102 2.46002 73.0202 2.46002Z" fill="#1E1E48"/>
<path d="M87.907 10.11C85.777 10.11 84.157 11.13 83.167 12.33V10.5H77.857V25.59H83.317V17.55C83.617 15.75 84.667 14.61 86.257 14.61C88.027 14.61 88.507 15.33 88.507 17.4V25.59H93.967V17.4C93.967 12.75 92.167 10.11 87.907 10.11Z" fill="#1E1E48"/>
</svg>
